<?xml version='1.0' encoding='utf-8'?>
<svg xmlns="http://www.w3.org/2000/svg" version="1.1" viewBox="0 0 600 976"> <path d="m331.69 421.86c-0.02762 0-0.05305 0.01427-0.06742 0.04487-0.02847 0.07607 0.02704 0.14544 0.10855 0.14544 0.00642 0 0.01302-4.4e-4 0.01972-0.00131 0.046-0.00611 0.06677-0.04526 0.04977-0.09497-0.02057-0.06028-0.06817-0.09403-0.11062-0.09403zm-2.6847 21.128c0.01102 0.00253 0.03257 0.02798 0.06437 0.08053 0.0466 0.077 0.07925 0.16623 0.06795 0.19895-0.00448 0.00741-0.00982 0.01101-0.01583 0.01101-0.01677 0-0.03867-0.02813-0.06073-0.07886-0.05574-0.12814-0.07486-0.20706-0.05904-0.21163zm4.2195 29.603c2.7e-4 0 5.5e-4 0 8.5e-4 4e-5h-0.00159c2.2e-4 -4e-5 4.7e-4 -4e-5 7.4e-4 -4e-5zm0.00173 1.4e-4c0.0225 0.0037 0.1308 0.0698 0.24158 0.15464 0.25525 0.20004 0.31757 0.31662 0.25172 0.48651-0.04392 0.12235-0.20673 0.2088-0.34385 0.2088-0.05252 0-0.10125-0.01265-0.13812-0.04089-0.17838-0.13202-0.18743-0.78403-0.01465-0.80906zm8.8551-17.392c0.18558 0 0.63312 0.23293 1.0685 0.5532 0.75015 0.56074 1.186 1.0644 1.538 1.7975 0.35705 0.73245 0.44775 1.0635 0.36142 1.3141-0.08634 0.25054-0.2673 0.4929-0.44107 0.59392-0.14957 0.08738-0.55997 0.59928-0.78159 0.96658-0.0675 0.1181-0.17496 0.36634-0.23807 0.55664-0.0618 0.20056-0.21625 0.48618-0.36621 0.68799-0.3392 0.46082-0.64743 1.0372-0.82006 1.5384-0.0744 0.22298-0.23612 0.5719-0.35987 0.77545-0.11865 0.20288-0.30789 0.53993-0.41495 0.75165-0.11285 0.20731-0.3103 0.483-0.44421 0.60996-0.13317 0.13208-0.32507 0.37066-0.42734 0.54022-0.10297 0.16437-0.29837 0.45538-0.43948 0.64563-0.13599 0.1896-0.3869 0.57117-0.55741 0.85364-0.16601 0.27676-0.47348 0.7023-0.67114 0.93646-0.20212 0.2399-0.39267 0.48871-0.4145 0.5592-0.02697 0.07114-0.12578 0.18824-0.21917 0.26819-0.09403 0.07483-0.24263 0.28696-0.32696 0.47478-0.19373 0.42082-0.15961 0.3643-0.52945 0.90727-0.2319 0.34067-0.4093 0.61575-0.54599 0.84888h-0.00339l-0.35624 0.46612h0.0034c-0.11118 0.22217-0.2393 0.43393-0.38672 0.6453h0.00336q-0.0178 0.25207-0.06394 0.30483-0.02823 0.0569-0.15777 0.0569-0.02219 0-0.04733-0.0017h-0.00336c-0.03312 0.04173-0.06699 0.08363-0.10169 0.12584-0.39895 0.49866-1.1481 2.3593-1.7767 4.2913q-0.10965-0.00189-0.21732-0.00246h-0.00332c-0.03132-0.10765-0.10422-0.30153-0.18188-0.48158-0.1717-0.3931-0.29334-0.76166-0.35172-1.045-0.01458-0.07083-0.07098-0.2609-0.12912-0.42477-0.12204-0.33213-0.20688-1.1682-0.1373-1.349 0.02694-0.07116 0.11724-0.13513 0.25244-0.17386 0.33484-0.10159 0.71133-0.3594 0.7751-0.54464 0.09825-0.2782-0.10677-0.68769-0.49312-0.97437-0.11505-0.08352-0.26886-0.22424-0.33728-0.30874-0.18643-0.22999-0.18066-0.65705 0.01318-1.3118 0.15159-0.50355 1.0592-2.4798 1.146-2.4913 0.02554-0.00338 0.08417-0.10995 0.13568-0.23111 0.13169-0.33977 0.7872-1.6691 0.8707-1.7842 0.03984-0.05206 0.07327-0.1137 0.07124-0.12899-0.01014-0.07664 0.5337-1.0324 0.80638-1.4066 0.15747-0.22366 0.32422-0.49524 0.37708-0.6062 0.09552-0.22061 0.33066-0.48581 0.58754-0.66544 0.07744-0.05244 0.14982-0.07874 0.21776-0.07874 0.11618 0 0.2193 0.07704 0.31204 0.23203 0.1541 0.26037 0.53052 0.58991 0.8158 0.70285 0.11712 0.04615 0.19808 0.06782 0.27902 0.06782 0.05554 0 0.11108-0.0102 0.17831-0.0297 0.31647-0.08353 0.54712-0.2649 0.6171-0.48212 0.07065-0.21208 0.26721-0.33694 0.58667-0.35848 0.50982-0.03647 0.68896-0.09662 0.82187-0.27024 0.12851-0.16776 0.14816-0.45108 0.03783-0.49884-0.02755-0.01192-0.07623-0.10434-0.10442-0.19934-0.03333-0.09436-0.12546-0.27966-0.20948-0.40368-0.084-0.124-0.22006-0.36588-0.30508-0.53654-0.19144-0.38528-0.28128-0.51379-0.51372-0.73766-0.10753-0.1053-0.1722-0.20072-0.15-0.22962 0.02215-0.02893 0.27926-0.08905 0.56915-0.13791 0.62565-0.10373 0.82049-0.20237 1.0118-0.52405l0.13192-0.22024-0.12588-0.16526c-0.07483-0.09402-0.22663-0.21945-0.33897-0.28252-0.113-0.06815-0.3288-0.2059-0.47787-0.3109-0.14983-0.1102-0.3316-0.22643-0.39833-0.25918-0.3176-0.16062-0.87922-0.55402-1.0763-0.74618-0.17456-0.17957-0.21536-0.25214-0.23732-0.45714-0.03556-0.30724 0.09978-0.5019 0.52187-0.72945 0.16043-0.08368 0.33483-0.17962 0.38833-0.20752 0.0535-0.02786 0.2521-0.13739 0.43677-0.23463 0.4769-0.2452 0.96448-0.52812 0.98969-0.5731 0.02524-0.04493 0.68244-0.4596 0.73352-0.46637 0.00729-9.8e-4 0.01517-0.00143 0.02356-0.00143zm-36.326 43.596c0.21034 0 0.31337 0.35204 0.31337 1.0475 0 0.77152-0.36841 1.2328-0.92395 1.2328-0.15756 0-0.33012-0.03705-0.51362-0.11472-0.38332-0.12778-0.3514-0.35141 0.25556-1.2459 0.38468-0.61554 0.67304-0.91967 0.86864-0.91967zm2.8051 1.6544c0.31946 0 0.73477 0.1597 0.95841 0.38333 0.54302 0.54313 0.47915 1.5334-0.09583 1.5334-0.25558 0-0.67085-0.4473-0.95837-0.95836-0.47918-0.89448-0.44728-0.95836 0.09579-0.95836zm-60.393-81.115c-0.01573 0.00153-0.03169 0.00343-0.0479 0.00567-0.19168 0.03198-1.1181 0.15976-2.0126 0.25562-1.3737 0.1597-1.9167 0.4472-3.0029 1.4694-1.5015 1.4695-3.7057 4.4724-4.7918 6.5489-1.1181 2.1723-0.99031 6.1655 0.70279 25.876 0.35141 4.121 0.76671 8.0184 0.92645 8.6572 0.15973 0.60697 0.89446 1.9168 1.5973 2.8751 3.0348 4.1529 3.0029 4.089 2.6195 4.9196-0.22363 0.51114-0.79864 0.89444-1.6612 1.1181-1.725 0.44728-2.364 1.5014-2.1084 3.2904 0.22362 1.4056-0.41528 3.1307-2.5237 6.7725-0.41529 0.70284-0.7667 1.5334-0.7667 1.8528-0.03195 0.6709-0.95837 2.5237-1.4056 2.8112-0.15973 0.12775-0.83058 0.31946-1.4695 0.41534-0.6389 0.09584-1.8209 0.70276-2.6834 1.3097-1.2778 0.95836-1.5014 1.2778-1.5014 2.2042 0 1.1341-0.14558 1.374-3.5913 1.374-0.82489 0-1.8389-0.01373-3.0853-0.03225-0.98509-0.01362-1.7737-0.02283-2.4088-0.02283-2.3514 0-2.5992 0.12674-2.9261 0.62976-0.31945 0.47922-0.44729 2.364-0.44729 7.667l-0.06384 7.028 23.48 0.09576 18.919 0.05154h-0.00259q0.58688 0.07502 1.0479 0.09882 0.39655 0.02592 0.75768 0.02592 0.76423 0 1.3698-0.1161h0.00264l1.3853 0.00378 0.70285-0.86254c0.40182-0.5127 0.54522-0.83908 0.27378-1.0443h-0.00266q0.50592-1.3389 0.32678-3.6517h-0.00296c0.02692-0.85049 0.04395-1.8749 0.04395-2.939v-4.6002l-1.0862-1.2139-1.0861-1.182-3.0348-0.03198c-3.3543-0.0639-3.8654-0.22364-3.5779-1.1181 0.22364-0.63892-1.182-2.2043-2.7154-2.9709-1.182-0.63894-4.664-1.15-7.635-1.15h-2.6515l0.15975-1.0542c0.28752-1.757 1.0542-4.8877 1.3098-5.303 0.08438-0.12662 0.16256-0.19128 0.24823-0.19128 0.10885 0 0.22973 0.10452 0.39064 0.31906 0.28752 0.38336 0.95838 0.54306 2.5876 0.57495l0.4476 0.01282-1.0042-60.779zm131.62 77.774c0.20173 0 0.257 1.4311 0.3316 6.057 0.03197 3.8016 0.2236 6.8364 0.38335 6.9961 0.19165 0.19168 0.31945 1.2778 0.31945 2.4598 0 1.4056 0.38334 3.6418 1.15 6.5489 2.0446 8.0183 2.6196 20.062 1.0862 23.129-0.12781 0.2556-0.47916 1.0542-0.76668 1.7569-0.70283 1.6931-2.7793 3.8975-3.9293 4.185-0.4792 0.1278-1.0223 0.3194-1.2139 0.4471-0.53244 0.39937-2.0631 0.8209-2.762 0.8209-0.13977 0-0.24624-0.01687-0.30483-0.05416-0.22361-0.12784 0.15975-0.70274 1.0542-1.5654 0.79864-0.76657 1.9806-2.3958 2.6196-3.6737 1.0862-2.0764 1.182-2.4917 1.0542-4.121-0.28753-3.0668-0.57503-3.8974-1.8209-5.1432-1.1501-1.15-1.6932-1.3737-4.7919-1.8528l-1.4375-0.22366-0.19167-3.514c-0.09587-1.9486-0.41533-4.3126-0.67088-5.271-0.89444-3.0348-1.3098-5.3349-1.1181-6.1016 0.23948-0.8979 1.5726-2.3848 2.0814-2.3848 0.03427 0 0.06476 0.0068 0.09092 0.0208 0.15975 0.1278 0.28756 0.4792 0.28756 0.7986 0 0.51117 2.0445 2.5557 2.5875 2.5557 0.09587 0 0.67085-0.3194 1.2778-0.73466 0.99033-0.67089 1.1181-0.89454 1.3097-2.7793 0.12783-1.1501 0.38336-2.939 0.57507-3.9932 0.19162-1.0542 0.47919-2.7154 0.63888-3.6738 0.15976-0.9584 0.44724-2.5557 0.60698-3.514 0.15975-0.95831 0.44722-2.6834 0.60698-3.8334 0.19168-1.15 0.51108-2.5237 0.73474-3.0348 0.08488-0.19105 0.15412-0.30683 0.21148-0.30683zm-113.97 10.37-50.634 0.03192-0.86255 0.76666c-0.83056 0.70282-0.89447 0.95844-0.89447 3.1307v2.3958l1.1501 0.54314c0.73477 0.35136 2.0445 0.54306 3.7376 0.57502l2.6196 0.06384 0.31946 41.53h5.4307l0.09584-20.637c0.06388-19.327 0.09583-20.669 0.63889-20.797 0.1961-0.056 8.278-0.0813 17.352-0.0813 11.621 0 24.869 0.0415 25.263 0.1133 0.1597 0 0.2875 9.3281 0.31945 20.701l0.09583 20.701h5.4308l0.09577-20.573c0.03197-12.043 0.19167-20.669 0.35144-20.796 0.1597-0.09584 9.0086-0.1598 19.678-0.1598 10.67 0 19.455-0.0958 19.519-0.22363 0.09583-0.15967 0.79862-0.54297 1.5334-0.89441 1.5333-0.6709 1.7889-1.0861 1.7889-2.8431 0-0.95838-0.22363-1.4056-1.214-2.364l-1.2139-1.182zm80.727-98.787c-0.11368 0-0.21088 0.02623-0.29988 0.07818-0.16863 0.10035-0.2917 0.30902-0.58235 1.0182-0.10608 0.25839-0.23532 0.49909-0.28302 0.5314-0.047 0.03742-0.27453 0.12482-0.50928 0.19746-0.31332 0.0967-0.46495 0.12728-0.72269 0.12728-0.03396 0-0.06973-5.2e-4 -0.10796-0.00148-0.03062-6.2e-4 -0.06175-9.3e-4 -0.09333-9.3e-4 -0.63527 0-1.4493 0.12231-1.7278 0.26323-0.46297 0.23296-0.71764 0.62544-0.94533 1.4562-0.069 0.26386-0.08277 0.47363-0.05175 0.94258 0.0205 0.35076 0.01382 0.65316-0.01822 0.725-0.03208 0.07183-0.15442 0.2076-0.2764 0.30697-0.12644 0.10513-0.22147 0.21136-0.21808 0.23691 0.00406 0.03064-0.1077 0.12866-0.24197 0.21402-0.34101 0.21158-0.4303 0.3222-0.54358 0.64395-0.05327 0.1474-0.20157 0.40095-0.32567 0.56295-0.28496 0.3601-0.62108 0.96104-0.6983 1.2415-0.04848 0.1832-0.12374 0.63508-0.21108 1.3484-0.01266 0.10044-2.7e-4 0.38993 0.03876 0.64472 0.04065 0.30652 0.04388 0.56598 0.00458 0.77914-0.02876 0.17536-0.0691 0.41983-0.08484 0.5363-0.04419 0.33336-0.09699 0.36635-0.81836 0.4932-0.4101 0.0708-0.65369 0.0968-1.0089 0.0968-0.09377 0-0.19534-0.00182-0.3098-0.00508-0.09843-0.00362-0.20133-0.00537-0.30753-0.00537-1.1511 0-2.69 0.20468-3.0945 0.42015-0.03816 0.02586-0.11412 0.04115-0.16078 0.04213-0.05176 0.00167-0.15506 0.12447-0.25598 0.3042-0.10844 0.20157-0.24402 0.35477-0.38714 0.45172-0.45414 0.29931-0.69718 0.62268-1.431 1.9104-0.04672 0.07898-0.10678 0.25329-0.1365 0.38202-0.11815 0.51992-0.23405 1.1747-0.22255 1.2616 0.0244 0.18394-0.1105 1.2051-0.19478 1.471-0.04816 0.14676-0.0994 0.38748-0.11618 0.53528-0.04526 0.44265-0.18754 0.82022-0.35486 0.93075-0.08075 0.0575-0.29874 0.13843-0.48058 0.17814-0.43534 0.08889-0.558 0.18313-0.75505 0.57843-0.09069 0.17837-0.20625 0.36526-0.2615 0.4194-0.15295 0.13986-0.28879 0.44891-0.62662 1.4294-0.27403 0.79533-0.31603 0.98805-0.34326 1.4491-0.01315 0.29286-0.03763 0.69638-0.05853 0.89148-0.05524 0.64163-0.02332 1.2352 0.16784 3.0293 0.10318 0.97403 0.22732 2.1844 0.27462 2.698 0.08113 0.84695 0.0971 0.928 0.17778 0.94852 0.0538 0.01363 0.08407 0.046 0.06704 0.07427-0.01196 0.02756 0.08216 0.38423 0.20853 0.78853 0.18927 0.6039 0.26405 0.77592 0.41241 0.95378 0.10444 0.12132 0.1905 0.26065 0.19794 0.31682 0.0037 0.04805 0.0055 0.07118-0.00238 0.07118-0.00729 0-0.02292-0.01998-0.0531-0.05858-0.04092-0.05088-0.07428-0.074-0.09392-0.07524h-0.0033c-0.02757 0.00194-0.02235 0.05399 0.03756 0.13514 0.04666 0.07702 0.09326 0.15402 0.09732 0.18466 0.03558 0.22921 0.21252 0.46569 0.58554 0.76971 0.22468 0.19006 0.43781 0.33143 0.4787 0.33143 6.8e-4 0 0.00131-4e-5 0.00188-1.3e-4 0.00636-0.00157 0.01222-0.00235 0.01753-0.00235 0.0325 0 0.04483 0.02958 0.03045 0.08958-0.00698 0.05385-0.00592 0.0779 0.00876 0.0779 0.00696 0 0.017-0.0054 0.03066-0.01556 0.0163-0.01426 0.02803-0.02164 0.03508-0.02274h0.00329c0.00753 0.00153 0.00595 0.0151-0.00497 0.0391-0.0208 0.03915 0.01422 0.1073 0.067 0.15234 0.05852 0.0494 0.09557 0.13286 0.08836 0.19619-0.0075 0.05577 0.00712 0.09903 0.03531 0.09903 0.00125 0 0.00251-6e-5 0.00383-2.4e-4 1e-4 -2e-5 2.6e-4 -2e-5 3.8e-4 -6e-5h0.0033c0.12375 0.01352 0.11005 1.547-0.02441 2.862-0.01545 0.15802-0.03879 0.45221-0.04303 0.65552-0.01001 0.19888-0.04471 0.60376-0.07894 0.89419-0.03425 0.29053-0.05565 0.67807-0.04216 0.85823l0.02292 0.32964 0.41321 0.29349c0.35089 0.25494 0.45613 0.30343 0.73566 0.33392 0.14413 0.01837 0.34077 0.02978 0.48224 0.02978 0.035 0 0.06665-7e-4 0.09326-0.00216 0.01581-6.7e-4 0.03125-0.00101 0.04635-0.00101 0.26178 0 0.41912 0.10056 0.44287 0.2793 0.01899 0.14306-0.01953 0.63681-0.08319 1.0975-0.04043 0.26952 0.03644 0.56313 0.14008 0.56313 0.00244 0 0.00488-1.5e-4 0.00732-4.9e-4 7.4e-4 -9e-5 0.00154-1.4e-4 0.00238-1.4e-4 0.02838 0 0.11643 0.05453 0.20694 0.12832 0.08365 0.06848 0.18942 0.12448 0.23426 0.12448 0.00204 0 0.00396-1.2e-4 0.00573-3.7e-4 0.00159-2.1e-4 0.0033-3e-4 0.0051-3e-4 0.09633 0 0.4841 0.29831 0.6481 0.49597 0.10583 0.1315 0.189 0.48437 0.11237 0.49454-0.07151 0.00949 0.09668 0.53302 0.20828 0.66896 0.05545 0.06544 0.26718 0.1725 0.46841 0.2394 0.37552 0.12695 0.55287 0.249 0.577 0.39138 0.0061 0.04599 0.03262 0.08926 0.05441 0.09677 0.09671 0.02355 0.31171 0.31215 0.32798 0.43472 0.00946 0.07153 0.07848 0.23911 0.15362 0.3747 0.07516 0.13559 0.14216 0.28787 0.14893 0.33896 0.01626 0.12259-0.12381 0.28152-0.32647 0.36037-0.08857 0.03776-0.2262 0.0976-0.30964 0.13468-0.5911 0.28632-0.71033 0.32816-1.0897 0.36808-0.52177 0.06396-0.96729 0.23224-1.5144 0.57516-0.51858 0.32346-0.95086 0.55234-1.8236 0.94878-0.53962 0.24312-1.1032 0.69737-1.18 0.94148-0.24543 0.77594-0.26693 0.88797-0.46481 2.375-0.04996 0.40698-0.11228 0.79985-0.12832 0.87475-0.0212 0.0756-0.03657 0.1556-0.0427 0.18763-0.00174 0.02624-0.0384 0.3378-0.08563 0.68717-0.04215 0.34865-0.10007 0.8918-0.1251 1.2123-0.02575 0.3153-0.07183 0.90885-0.11163 1.3144-0.03467 0.4049-0.07624 0.91464-0.08932 1.1295-0.0131 0.2149-0.03642 0.4311-0.0463 0.474-0.01984 0.08583-0.0192 0.1689 0.00476 0.46723 0.00402 0.08912-5.2e-4 0.1355-0.01855 0.1355-0.00603 0-0.01353-0.00516-0.02273-0.01565-0.00413-0.00498-0.0076-0.00785-0.01045-0.0087h-0.00325c-0.01402 0.00522-0.00465 0.08334 0.02477 0.20996 0.03533 0.15799 0.03866 0.24094 9e-3 0.24094-0.00257 0-0.0054-6.1e-4 -0.00845-0.00188-0.00534-0.0032-0.01099-0.00472-0.01676-0.00472-0.02481 0-0.05169 0.02784-0.06332 0.06736-0.00854 0.0531 0.00776 0.09771 0.03466 0.10456 0.08512 0.0147 0.0854 0.13427 0.00803 0.21734-0.07519 0.08066-0.06873 0.25856 0.00669 0.25856 0.00218 0 0.00442-1.4e-4 0.00674-4.5e-4 0.00162-2.1e-4 0.00318-3e-4 0.0047-3e-4 0.02249 0 0.03369 0.02285 0.02252 0.04867-0.01352 0.02756-0.03582 0.04208-0.05548 0.04208-0.00415 0-0.00818-6.3e-4 -0.01196-0.00194-0.0022-0.00123-0.00434-0.00184-0.00634-0.00184-0.01856 0-0.0288 0.05054-0.01963 0.11966 0.01016 0.07662-0.03157 0.31089-0.09197 0.52164-0.1079 0.36264-0.10826 0.39908-0.02095 0.70462 0.05435 0.17474 0.15635 0.47311 0.22805 0.66116 0.09654 0.2575 0.1352 0.47074 0.16624 0.8617 0.01686 0.28366 0.07922 0.6757 0.13629 0.87085 0.24564 0.87198 0.47022 1.5856 0.53824 1.7065 0.10239 0.18396 0.17725 0.78751 0.15006 1.1706-0.01273 0.17841 0.01931 0.61603 0.082 1.0496 0.04065 0.25718 0.0874 0.57576 0.12701 0.8462h-0.0033q-0.47537 0.39029-0.73898 0.91726-0.60959 1.2003-0.00979 3.4804 0.58926 2.2873 2.4597 5.9562 1.1315 2.2539 3.5105 6.3473h-0.00336l0.03891 0.32313q0.05783 0.39929-0.14893 0.6141-1.1307 0.99332-2.0356 1.2152 0.02491 0.05916-0.88632 0.0774h0.00333l-0.04422 0.69992-2.8112-0.09583c-0.36957-0.01253-0.7085-0.01895-1.0169-0.01895-1.2643 0-2.0166 0.10724-2.2734 0.33838-0.25553 0.19171-1.3417 0.41534-2.4279 0.51114-0.27539 0.01275-0.51986 0.02148-0.74446 0.02148-1.469 0-2.0878-0.37543-4.9418-2.4813-0.60693-0.47922-1.757-1.0223-2.5556-1.2779-0.79862-0.22364-1.6292-0.57498-1.8209-0.73468-0.13972-0.09986-0.50409-0.14981-0.93712-0.14981-0.2598 0-0.54432 0.01797-0.81983 0.05398-0.7667 0.12765-2.364 0.28745-3.6099 0.38333-2.1084 0.19162-3.3542 0.73474-3.3542 1.5014 0 0.15979-0.41535 0.79864-0.9584 1.4057-0.51115 0.57504-0.95837 1.3417-0.95837 1.6611 0 0.89857-0.49515 1.24-2.0988 1.24-0.39188 0-0.84998-0.02035-1.3832-0.05804-1.4376-0.09584-3.7696-0.28754-5.2071-0.38334-1.4695-0.09582-2.8112-0.31942-3.0029-0.47915-0.06815-0.05841-0.14517-0.08715-0.2302-0.08715-0.19403 0-0.42968 0.1497-0.69623 0.4385-0.34872 0.39227-0.71063 0.59292-1.188 0.59292-0.57215 0-1.3101-0.2883-2.3899-0.88042-0.9181-0.512-1.3385-0.74104-1.6604-0.74104-0.2605 0-0.45643 0.15006-0.79943 0.42157-0.50212 0.39447-0.8331 0.57767-1.1738 0.57767-0.26622 0-0.53836-0.1119-0.90268-0.32205-0.19821-0.13217-0.37134-0.20855-0.56384-0.20855-0.45902 0-1.0284 0.4343-2.3113 1.5822-1.0861 1.0222-1.3098 1.4056-1.3098 2.4279 0 0.95831 0.22364 1.4375 1.0542 2.2362l1.0542 1.0223h16.388c1.9802 0.00437 3.7278 0.00696 5.271 0.00696 9.6355 0 11.306-0.10067 11.884-0.48617 0.92645-0.60697 0.95837-1.15 0.12782-1.9168-0.35145-0.31942-0.63893-0.70276-0.63893-0.86249 0-0.19043 0.10383-0.28023 0.28083-0.28023 0.38708 0 1.1242 0.4294 1.8914 1.1747 1.3417 1.2778 2.5556 1.9168 4.3446 2.1724 0.78618 0.1048 1.2666 0.2956 1.4936 0.61942q2.1698-0.18472 3.8278-0.18472 0.04504 0 0.08972 1.2e-4l0.0061 2e-5q2.5353 0.0094 3.6091 0.4851 1.0144 0.45644 0.79776 1.4746-0.38476 1.4383-2.2942 2.7966-0.08533 0.05868-0.1715 0.11407h0.00326c0.08569 0.39293-1.889 1.595-2.6016 1.595-0.28753 0-1.1181 0.54309-1.8848 1.182-2.907 2.5236-3.8973 3.2904-4.1529 3.2904-0.1597 0-0.7347 0.44725-1.3097 0.95835-0.99029 0.9264-1.0862 0.95834-4.4404 0.95834-1.8848 0-3.8654 0.12781-4.4085 0.31946-0.54302 0.1597-3.1307 0.67084-5.7821 1.1181-8.8809 1.5334-11.437 2.1084-13.257 3.0348-1.4056 0.73473-1.9806 1.3736-2.8751 3.2584-0.575 1.214-0.67086 1.8848-0.54308 3.6738 0.22368 3.1945 0.47918 3.9293 2.0126 5.5905 0.76675 0.8305 1.4056 1.757 1.4056 2.0764 0 0.3195 0.3195 1.214 0.67087 2.0126 0.38333 0.7987 0.86253 2.2362 1.1181 3.1944 0.54309 2.0766 0.607 2.2364 2.3321 5.8461 0.76664 1.5654 1.6931 3.578 2.1084 4.5044 0.41526 0.89455 0.95838 1.821 1.214 2.0446 0.28241 0.23114 1.9062 0.3384 6.1155 0.3384 1.0278 0 2.2098-0.00637 3.564-0.019l9.2322-0.0958 0.09585-2.1723c0.06387-1.6612-0.0639-2.4278-0.54313-3.3544-0.3194-0.63879-0.7986-1.9166-1.0222-2.7792-0.19168-0.8945-0.89446-2.7153-1.5015-4.0571-0.894-1.9843-1.148-2.9118-0.76197-2.9146h0.00351c0.18018 0.00125 0.49692 0.19989 0.95016 0.58265 0.6861 0.57537 0.9582 0.7675 1.9634 0.7675 0.44583 0 1.0358-0.03784 1.87-0.0967 0.60489-0.0378 1.5776-0.05564 2.7338-0.05564 1.7749 0 3.9823 0.04218 5.9554 0.11964l5.878 0.2235-0.09582 1.6612c-0.03195 0.92645 0.09582 2.2363 0.31946 2.8751 0.47915 1.4056 1.4695 2.9709 1.8848 2.9709 0.15976 0 1.2139 0.5751 2.364 1.3098 1.4122 0.87654 1.9708 1.1593 2.6233 1.1593 0.20361 0 0.41635-0.02753 0.66705-0.07312 0.6709-0.12774 3.3224-0.28744 5.9419-0.38334l4.696-0.1278v1.757c0 2.6834 0.15975 2.7473 5.7182 2.7473 2.5876 0 4.7918-0.09582 4.8877-0.19166 0.09583-0.0958 0-0.9265-0.25555-1.8209-0.53088-2.044-0.62064-2.4336 0.22562-2.4336 0.17216 0 0.38306 0.0161 0.6369 0.0377 1.3098 0.09584 1.3417 0.1597 1.8528 1.6931 0.74432 2.3356 0.68439 2.6915 3.3325 2.6915 0.6479 0 1.458-0.02126 2.4816-0.04016l4.6001-0.0958 0.09582-1.5014c0.12778-1.7251 0.28751-1.8849 2.6196-2.6195 0.95836-0.31943 2.5237-0.92637 3.4501-1.3418 0.92642-0.41526 1.8209-0.7667 2.0126-0.7667 0.60699 0 4.7599-4.2168 4.7599-4.8237 0-0.3195 0.1597-0.67086 0.31944-0.7667 0.19166-0.0958 0.31946-0.54314 0.31946-0.95836 0-0.41534 0.1597-0.86254 0.31943-0.95844 0.19167-0.12774 0.31947-2.4598 0.31947-5.9099s-0.1278-5.7822-0.31947-5.9099c-0.15973-0.09585-0.31943-1.5334-0.31943-3.1626 0-1.5972-0.1278-3.0668-0.28756-3.2265-0.1597-0.19174-0.38334-1.4695-0.44724-2.8751-0.0958-1.4056-0.31946-3.4182-0.51108-4.4724-0.38332-2.1404-0.83056-4.8558-1.3737-8.4655-0.47924-3.1946-0.35144-8.9128 0.22361-10.574 0.60696-1.6612 0.63893-5.8141 0.09585-6.2934-0.22366-0.19164-0.83059-0.38332-1.3736-0.44722-0.89451-0.09588-0.95837-0.15978-0.89451-1.3737 0.06391-0.7028 0.31946-1.9806 0.63889-2.8751 0.92642-2.7793 0.51117-5.3349-0.92635-5.6862-0.13688-0.03732-0.30177-0.05469-0.48713-0.05469-0.14457 0-0.30161 0.01059-0.46759 0.03055h0.00382l-4.454 2.089h0.00376c-0.13929 0.086-0.26024 0.14181-0.35209 0.16162h0.00375l-0.45162 0.21182h0.00375q-0.28533 0.25397-0.52295 0.41238-0.17268 0.08997-0.26758 0.08997-0.01828 0-0.03366-0.00333-0.09014-0.04028-0.17904-0.08447h-0.00376l3e-5 3e-5h-3e-5l0.04813 0.09326 0.10611 0.20566q-0.24098-0.23895-0.47478-0.47342h0.0037q-0.3301-0.19566-0.6425-0.4483h0.00375l-0.27595-0.11456q-0.07665-0.03196-0.17608-0.08286-0.47282-0.24542-0.45886-0.24784h7.6e-4l-0.12396-0.08804h-0.00372q-3.7206-13.599-8.0666-19.281-1.834-2.2777-3.8618-3.5654h-0.0036c-0.04956-0.07343-0.10086-0.14984-0.15399-0.2294-0.25344-0.38223-0.50791-0.73316-0.57224-0.78702-0.06363-0.04874-0.31167-0.39017-0.558-0.75781-0.24562-0.36253-0.5409-0.78601-0.66475-0.93591-0.11875-0.15058-0.34771-0.50495-0.51028-0.7901-0.1575-0.28586-0.37042-0.63712-0.46737-0.78022-0.0976-0.1482-0.21494-0.36654-0.26697-0.4844-0.05201-0.11786-0.26093-0.4385-0.46303-0.708-0.2065-0.2637-0.43-0.57722-0.4967-0.68794-0.06734-0.11584-0.26266-0.33423-0.43456-0.49346-0.27224-0.2498-0.31884-0.32676-0.41774-0.64115-0.06282-0.19962-0.16042-0.42578-0.21858-0.51163-0.0633-0.08526-0.116-0.20822-0.12479-0.27462-0.00883-0.06644-0.03363-0.13593-0.05676-0.15363-0.05207-0.03989-0.54401-1.2795-0.5174-1.3142 0.00226-0.00296 0.00603-0.00442 0.0109-0.00442 0.0141 0 0.03703 0.01254 0.05587 0.03723 0.02091 0.02786 0.12363 0.03991 0.25074 0.03991 0.21808 0 0.50796-0.03552 0.57982-0.08773 0.1094-0.07691 0.14604-0.31043 0.12995-0.745-0.01501-0.46588-0.01388-0.57519 0.03461-0.75839 0.05017-0.20941-0.04529-0.49826-0.27798-0.84168-0.21265-0.30972-0.42648-0.86361-0.46811-1.2168-0.01694-0.12773 0.00815-0.44816 0.05667-0.70936 0.04788-0.26627 0.07536-0.60782 0.06012-0.76174-0.02234-0.1686-0.00928-0.3055 0.02754-0.34157 0.03676-0.03603 0.05043-0.08987 0.03548-0.12426-0.01938-0.02863 0.00207-0.06267 0.04806-0.06877 0.04596-0.0061 0.07904-0.03127 0.07633-0.0517-0.00339-0.02553 0.16159-0.27098 0.3685-0.55315 0.20761-0.27698 0.37259-0.52243 0.37053-0.53775-0.00203-0.01532 0.11186-0.176 0.2499-0.35025 0.32988-0.41293 0.616-0.88229 0.87893-1.4474 0.11834-0.24443 0.28952-0.52183 0.38665-0.61267 0.12879-0.12626 0.21132-0.28796 0.31742-0.62442 0.07544-0.25434 0.20608-0.56277 0.28824-0.68804 0.08221-0.12522 0.20053-0.36964 0.26638-0.53953 0.20301-0.54677 0.49204-1.8951 0.53268-2.5295 0.01618-0.23089 0.05314-0.50091 0.07737-0.5925 0.02359-0.09668 0.05313-0.50097 0.05716-0.90179 0.00912-0.40149 0.02301-0.76721 0.0278-0.80942 0.02017-0.12225-0.0105-1.0592-0.04999-1.553-0.12222-1.5486-0.12661-1.6208-0.05487-1.8642 0.043-0.14608 0.064-0.41915 0.04987-0.68243l-0.02624-0.43319 0.21355-0.07511c0.32325-0.11047 0.37205-0.2521 0.22795-0.71127l-0.11656-0.36926 0.12622-0.30268c0.06656-0.1647 0.22617-0.45099 0.35194-0.63926 0.6606-0.97655 1.059-1.8144 1.3246-2.7905 0.04608-0.16203 0.11401-0.3946 0.15018-0.51384 0.12661-0.41706 0.27078-1.0548 0.2951-1.3024 0.03192-0.34733-0.08602-1.1583-0.23012-1.5394-0.12916-0.34676-0.4032-1.4333-0.5638-2.2126-0.1255-0.63315-0.44973-1.5883-0.7211-2.1449-0.2493-0.50763-0.85824-1.4146-1.2884-1.9138-0.51072-0.59763-1.2662-1.2772-1.5658-1.4195-0.22706-0.10505-0.9456-0.62314-0.95442-0.68957-0.0664-0.42265-0.406-1.3757-0.51184-1.4293-0.02249-0.01263-0.17284-0.20581-0.33172-0.42386-0.43265-0.5831-0.60999-0.74841-0.93726-0.74841-0.06056 0-0.12626 0.00564-0.19968 0.01538-0.0195 0.00259-0.04078 0.00386-0.06268 0.00386-0.07574 0-0.15955-0.0149-0.20734-0.04082-0.11743-0.06238-0.82504-0.14528-1.2623-0.14966-0.32288-0.00392-0.4972-0.06405-0.8005-0.27337-0.31993-0.21747-0.58055-0.53641-0.60832-0.74588-0.01198-0.0903-0.04168-0.16321-0.06213-0.16321-3.7e-4 0-7.3e-4 0-0.0011 6e-5 -2.1e-4 3e-5 -4.5e-4 3e-5 -7e-4 3e-5 -0.02188 0-0.12021-0.12097-0.21745-0.27265-0.3415-0.53692-0.87594-0.88195-1.3868-0.8922-0.00923-2.5e-4 -0.01819-4e-4 -0.02695-4e-4 -0.14541 0-0.23648 0.03754-0.4421 0.18744-0.20694 0.15079-0.34162 0.22879-0.52411 0.22879-0.20209 0-0.46283-0.09561-0.94532-0.29393-0.22918-0.09426-0.40965-0.14073-0.56097-0.14073z"/> </svg>